Coordinates
version=1
nRows=24
nColumns=24
inDegrees=yes

Units are S.I. units (second, meters, Newtons, ...)
Angles are in degrees.

endheader
time	pelvis_tilt	pelvis_list	pelvis_rotation	pelvis_tx	pelvis_ty	pelvis_tz	hip_flexion_r	hip_adduction_r	hip_rotation_r	knee_angle_r	ankle_angle_r	subtalar_angle_r	mtp_angle_r	hip_flexion_l	hip_adduction_l	hip_rotation_l	knee_angle_l	ankle_angle_l	subtalar_angle_l	mtp_angle_l	lumbar_extension	lumbar_bending	lumbar_rotation
      0.71316667	      4.83725099	     -0.08365042	     -0.99171766	     -0.44869128	      1.02583516	      0.28964330	      3.95572357	      3.76742330	      2.41100199	    -14.98690984	      5.62208046	    -15.46663199	      7.80739833	     11.03998134	     -1.73326746	     -5.68108618	    -68.45271746	      1.86230892	    -14.49063791	      0.39870711	     -9.11027428	     -0.17268981	      3.64814580
      0.71733333	      4.82464104	      0.09689043	     -1.08237382	     -0.44361669	      1.02662751	      0.28992149	      3.52897200	      3.57691489	      2.51131720	    -14.73707125	      5.72159190	    -15.43292305	      7.79082556	     11.58449583	     -1.54451635	     -5.77471423	    -68.16405346	      2.11150307	    -14.51831101	      0.33208490	     -9.11602415	     -0.39249025	      3.80334789
      0.72150000	      4.80579718	      0.27159542	     -1.18130660	     -0.43851170	      1.02738502	      0.29018879	      3.10479637	      3.38795817	      2.60627213	    -14.48062772	      5.82529201	    -15.39067227	      7.77743904	     12.11501321	     -1.36715797	     -5.87849980	    -67.80465833	      2.33867405	    -14.50024716	      0.28056853	     -9.09956532	     -0.57855981	      3.99688818
      0.72566667	      4.78780676	      0.43200589	     -1.29514699	     -0.43342757	      1.02809741	      0.29046533	      2.67926457	      3.21204202	      2.71924292	    -14.21841993	      5.97372209	    -15.30530870	      7.74944157	     12.63205852	     -1.21316338	     -5.99436257	    -67.38978145	      2.54165914	    -14.41773602	      0.17675423	     -9.10442506	     -0.76857812	      4.38525286
      0.72983333	      4.76985903	      0.60481792	     -1.39558364	     -0.42831296	      1.02879450	      0.29069228	      2.25034500	      3.01449865	      2.78612662	    -13.94905844	      6.05665797	    -15.23518821	      7.73658292	     13.12905872	     -1.03825523	     -6.09421117	    -66.90181663	      2.75645085	    -14.33126161	      0.13424771	     -9.08794624	     -0.96005214	      4.53714732
      0.73400000	      4.75991220	      0.75590185	     -1.51613432	     -0.42320724	      1.02943272	      0.29093646	      1.81679744	      2.83762223	      2.86113735	    -13.68676236	      6.21557462	    -15.11366518	      7.71274447	     13.60300334	     -0.90074941	     -6.21650607	    -66.36856525	      2.96513074	    -14.15494336	      0.05473264	     -9.08146574	     -1.11503114	      4.88594234
      0.73816667	      4.72157115	      0.90099272	     -1.60841670	     -0.41810533	      1.03000822	      0.29113509	      1.40135385	      2.66457307	      2.91335281	    -13.39413024	      6.28115876	    -15.02436269	      7.70413031	     14.10219252	     -0.76101493	     -6.30095143	    -65.78650784	      3.15882135	    -14.00593367	      0.03042075	     -9.06126661	     -1.30192718	      5.02119359
      0.74233333	      4.70212535	      1.05463846	     -1.73783425	     -0.41298450	      1.03056179	      0.29135233	      0.98320473	      2.47552423	      2.96216397	    -13.13890680	      6.41605732	    -14.89346695	      7.68970303	     14.54868422	     -0.62613236	     -6.43192169	    -65.12981707	      3.36391458	    -13.74286653	     -0.00927154	     -9.03583250	     -1.45301404	      5.32032568
      0.74650000	      4.71329495	      1.17399258	     -1.85070414	     -0.40788708	      1.03110478	      0.29155456	      0.51243228	      2.32190874	      3.00831865	    -12.84154371	      6.55897285	    -14.72974463	      7.66807224	     14.95622986	     -0.53010342	     -6.54200432	    -64.44060507	      3.56383870	    -13.49031170	     -0.06281079	     -9.06963029	     -1.58967168	      5.67063705
      0.75066667	      4.69047450	      1.30526125	     -1.96691111	     -0.40277657	      1.03156599	      0.29173816	      0.08647656	      2.15178325	      3.03776378	    -12.55823847	      6.67593190	    -14.58600516	      7.64922173	     15.38104809	     -0.42201024	     -6.65721657	    -63.68892260	      3.74725777	    -13.21255748	     -0.10275393	     -9.05412875	     -1.74089954	      5.92955666
      0.75483333	      4.65298784	      1.42485979	     -2.08240801	     -0.39766448	      1.03194693	      0.29191422	     -0.32106418	      1.99365560	      3.06220145	    -12.27945746	      6.79332133	    -14.43043337	      7.63154245	     15.80760520	     -0.32843789	     -6.76506338	    -62.89313554	      3.92256591	    -12.91727100	     -0.13406963	     -9.02244580	     -1.86789657	      6.19805415
      0.75900000	      4.62450902	      1.54995580	     -2.19452077	     -0.39254487	      1.03231057	      0.29207233	     -0.73960687	      1.82587553	      3.06627683	    -11.99621679	      6.87603848	    -14.30269619	      7.62324947	     16.20208500	     -0.22736083	     -6.87155196	    -62.03287959	      4.07020385	    -12.62455953	     -0.14406686	     -8.99243294	     -2.00824152	      6.37597310
      0.76316667	      4.62674167	      1.63708630	     -2.30820415	     -0.38744173	      1.03264441	      0.29222805	     -1.20024424	      1.69657547	      3.08061470	    -11.69605879	      7.02561096	    -14.11618638	      7.61107327	     16.55222904	     -0.17928686	     -6.98607447	    -61.14852410	      4.25246529	    -12.26687167	     -0.15512200	     -9.01530152	     -2.10507963	      6.70227655
      0.76733333	      4.60835960	      1.72490384	     -2.41772729	     -0.38233129	      1.03291166	      0.29236482	     -1.63588363	      1.56590750	      3.08426978	    -11.40001881	      7.13579793	    -13.96041791	      7.59813815	     16.90571079	     -0.12647372	     -7.08968513	    -60.20950790	      4.39870124	    -11.92853307	     -0.15944833	     -9.00547976	     -2.20110334	      6.97039122
      0.77150000	      4.58990566	      1.81290164	     -2.52560172	     -0.37721679	      1.03313597	      0.29249565	     -2.07106031	      1.43387975	      3.07900911	    -11.10379724	      7.25103653	    -13.80606269	      7.58723495	     17.23931240	     -0.07658588	     -7.19790965	    -59.21813631	      4.53018670	    -11.58421624	     -0.15639200	     -8.99392629	     -2.30106371	      7.22075942
      0.77566667	      4.55311709	      1.89095977	     -2.63206296	     -0.37210332	      1.03327521	      0.29261686	     -2.48195106	      1.31285705	      3.07581323	    -10.81684794	      7.36838313	    -13.65242239	      7.57734143	     17.57680105	     -0.03853471	     -7.30047794	    -58.18735763	      4.64950039	    -11.23692213	     -0.14667593	     -8.96356133	     -2.38490665	      7.47718766
      0.77983333	      4.55204544	      1.95920083	     -2.72932009	     -0.36699770	      1.03343368	      0.29271002	     -2.93919806	      1.19916584	      3.06483461	    -10.51329769	      7.47403359	    -13.50096129	      7.56716184	     17.85447194	     -0.00535702	     -7.39095465	    -57.10363944	      4.75033421	    -10.89548661	     -0.13097779	     -8.97901949	     -2.45768079	      7.72335722
      0.78400000	      4.52611958	      2.02143824	     -2.82808790	     -0.36188245	      1.03350414	      0.29281112	     -3.36525501	      1.09401129	      3.05727653	    -10.21882267	      7.58841921	    -13.36113386	      7.55753956	     18.14084098	      0.01503725	     -7.48861821	    -55.97992322	      4.83485483	    -10.55445580	     -0.10982041	     -8.96171468	     -2.52682782	      7.96778750
      0.78816667	      4.47211058	      2.09208424	     -2.91523372	     -0.35675653	      1.03350290	      0.29287913	     -3.75474891	      0.98072934	      3.03276391	     -9.93723912	      7.67061869	    -13.24951601	      7.55273169	     18.43614407	      0.05303338	     -7.56698611	    -54.79942064	      4.87601059	    -10.24579326	     -0.09494906	     -8.90424298	     -2.60578716	      8.12937774
      0.79233333	      4.46356253	      2.13468327	     -3.00670419	     -0.35164449	      1.03350155	      0.29295113	     -4.20242575	      0.89437455	      3.02374703	     -9.63747703	      7.81994570	    -13.09174497	      7.54403802	     18.66409179	      0.05245245	     -7.66057276	    -53.59078826	      4.93991169	     -9.91738641	     -0.06370346	     -8.91630036	     -2.64731325	      8.43254008
      0.79650000	      4.40856513	      2.18752679	     -3.07908046	     -0.34652084	      1.03341620	      0.29299340	     -4.59076342	      0.80244826	      2.99697498	     -9.35757988	      7.89936016	    -12.99317217	      7.53885987	     18.92163958	      0.07563339	     -7.72093875	    -52.32472242	      4.93924859	     -9.62866060	     -0.04453619	     -8.86071729	     -2.70803978	      8.58622800
      0.80066667	      4.41800434	      2.21578615	     -3.15700553	     -0.34141022	      1.03335851	      0.29303533	     -5.06066061	      0.73200521	      2.98761726	     -9.05456196	      8.04120009	    -12.86206549	      7.52838498	     19.08904482	      0.06625361	     -7.80065592	    -51.02684119	      4.95791023	     -9.33969425	     -0.00598752	     -8.89701785	     -2.73383445	      8.86828801
      0.80483333	      4.35754672	      2.24756546	     -3.22035486	     -0.33628437	      1.03316893	      0.29305068	     -5.44390104	      0.66386687	      2.96840935	     -8.77591745	      8.15337780	    -12.76279729	      7.51543848	     19.31296369	      0.06735063	     -7.85579426	    -49.68228653	      4.93141395	     -9.08088054	      0.03750991	     -8.84425445	     -2.76268825	      9.08654853
      0.80900000	      4.32498549	      2.27247169	     -3.27426135	     -0.33116080	      1.03297652	      0.29305739	     -5.86095652	      0.60404316	      2.94618034	     -8.49190313	      8.26371473	    -12.67031123	      7.50077291	     19.48534903	      0.06513932	     -7.90331921	    -48.29556860	      4.88683610	     -8.83745690	      0.08356338	     -8.82600245	     -2.78890995	      9.28135569
